<?xml version="1.0" encoding="UTF-8"?><svg id="a" xmlns="http://www.w3.org/2000/svg" xmlns:xlink="http://www.w3.org/1999/xlink" viewBox="0 0 339.23 324.33"><defs><style>.j{clip-path:url(#b);}.k{fill:#3f6b71;}.l{fill:#fff;font-family:Poppins-ExtraBold, Poppins;font-size:24px;}.m{fill:none;}.n{fill:#ffa800;}.o{fill:#506d8f;}</style><clipPath id="b"><rect class="m" width="339.23" height="324.33"/></clipPath></defs><g class="j"><g id="c"><path id="d" class="n" d="M254.56,320.39c60.9-16.32,97.04-78.91,80.72-139.81-7.21-26.93-24.03-50.28-47.28-65.66-.02,2.69-.12,5.36-.31,8.01,48.16,34.61,59.15,101.7,24.55,149.87s-101.7,59.15-149.87,24.55c-25.01-17.97-41.11-45.82-44.19-76.47-2.41-1.16-4.78-2.41-7.12-3.74,3.87,62.93,58.03,110.81,120.96,106.93,7.61-.47,15.16-1.7,22.53-3.67"/><path id="e" class="o" d="M250.34,33.44c-44.58-44.58-116.86-44.59-161.44,0-19.71,19.71-31.53,45.96-33.23,73.78,2.33-1.33,4.7-2.57,7.1-3.73C68.65,44.47,121.27,1.4,180.28,7.28c59.01,5.89,102.08,58.5,96.2,117.51-3.06,30.65-19.13,58.52-44.14,76.51,.2,2.67,.31,5.34,.32,8.03,52.56-34.82,66.95-105.66,32.13-158.22-4.21-6.36-9.05-12.28-14.45-17.68"/><path id="f" class="k" d="M3.94,180.58c-16.32,60.9,19.82,123.5,80.71,139.82,26.93,7.22,55.57,4.33,80.51-8.12-2.32-1.36-4.58-2.78-6.78-4.28-54.05,24.41-117.65,.37-142.06-53.68-24.41-54.05-.37-117.65,53.68-142.06,28.07-12.68,60.23-12.69,88.31-.03,2.21-1.51,4.48-2.94,6.8-4.29-56.44-28.11-124.98-5.15-153.09,51.28-3.4,6.83-6.11,13.99-8.09,21.36"/><path id="g" class="k" d="M115.85,114.92c0-27.24,22.08-49.32,49.32-49.32s49.32,22.08,49.32,49.32-22.08,49.32-49.32,49.32h0c-27.24,0-49.32-22.08-49.32-49.32h0"/><path id="h" class="o" d="M185.14,209.42c0-27.24,22.08-49.32,49.32-49.32s49.32,22.08,49.32,49.32-22.08,49.32-49.32,49.32h0c-27.24,0-49.32-22.08-49.32-49.32h0"/><path id="i" class="n" d="M61.75,209.42c0-27.24,22.08-49.32,49.32-49.32s49.32,22.08,49.32,49.32-22.08,49.32-49.32,49.32h0c-27.24,0-49.32-22.08-49.32-49.32h0"/></g></g><text class="l" transform="translate(130.61 125.75)"><tspan x="0" y="0">ZOOM</tspan></text><text class="l" transform="translate(213.61 218.75)"><tspan x="0" y="0">ERP</tspan></text><text class="l" transform="translate(73.61 218.75)"><tspan x="0" y="0">MAPP</tspan></text></svg>